# xmcd
#
# Track frame offsets: 
#        150
#        16617
#        33691
#        51026
#        75937
#        92195
#        109274
#        134860
#        142689
#        164770
#        186006
#
# Disc length: 2778 seconds
#
# Revision: 0
# Processed by: cddbd v1.5.2PL0 Copyright (c) Steve Scherf et al.
# Submitted via: ExactAudioCopyFreeDBPlugin 1.0
#
DISCID=8d0ad80b
DTITLE=Duo Bottasso and Longo - Biserta e altre storie
DYEAR=2019
DGENRE=No, thanks.
TTITLE0=Maitia
TTITLE1=Autumn I
TTITLE2=Spirali I
TTITLE3=Fragen (live)
TTITLE4=Samarazurka
TTITLE5=Spirali II
TTITLE6=Autumn II
TTITLE7=Frères
TTITLE8=Majestic
TTITLE9=Attente
TTITLE10=Maitia (live)
EXTD=
EXTT0=
EXTT1=
EXTT2=
EXTT3=
EXTT4=
EXTT5=
EXTT6=
EXTT7=
EXTT8=
EXTT9=
EXTT10=
PLAYORDER=
